<svg width="24" height="24" viewBox="0 0 24 24" fill="none" xmlns="http://www.w3.org/2000/svg">
<path d="M13.5045 4.12654C13.5045 4.98709 12.8069 5.68471 11.9463 5.68471C11.0858 5.68471 10.3882 4.98709 10.3882 4.12654C10.3882 3.26598 11.0858 2.56836 11.9463 2.56836C12.8069 2.56836 13.5045 3.26598 13.5045 4.12654Z" fill="#1F1F22"/>
<path d="M11.948 4.12651C15.0701 4.12676 17.614 6.59842 17.7311 9.69198C17.7311 9.69358 17.7325 9.69487 17.7341 9.69487C17.7357 9.69487 17.737 9.6962 17.737 9.69785V13.074C17.737 13.6934 18.455 14.188 18.8025 14.7007L19.8142 16.1949C20.2634 16.8588 19.7877 17.7552 18.9861 17.7554H5.01536C4.21348 17.7554 3.73776 16.8589 4.18724 16.1949L5.19798 14.7007C5.52775 14.2139 6.1599 13.7477 6.1599 13.1597V9.69785C6.1599 9.6962 6.16123 9.69487 6.16288 9.69487C6.16448 9.69487 6.1658 9.69358 6.16586 9.69198C6.28298 6.59842 8.82582 4.12672 11.948 4.12651Z" fill="#1F1F22"/>
<path d="M14.352 19.0197C14.3519 20.3518 13.272 21.4318 11.9399 21.4318C10.691 21.4317 9.66391 20.4822 9.54051 19.2658L9.52782 19.0197H14.352Z" fill="#1F1F22"/>
</svg>
