<?xml version="1.0" encoding="UTF-8"?>
<svg id="_레이어_2" data-name="레이어 2" xmlns="http://www.w3.org/2000/svg" viewBox="0 0 128.91 15.3">
  <g id="_레이어_1-2" data-name="레이어 1">
    <g>
      <path fill="currentColor" d="M78.13,4.85h4.38c.69,0,1.28-.47,1.44-1.14h0c.21-.92-.49-1.8-1.43-1.8h-6.57c-.69,0-1.29.47-1.44,1.15l-2.25,10.15c-.2.92.49,1.79,1.44,1.79h6.58c.69,0,1.29-.47,1.44-1.15.2-.92-.49-1.79-1.44-1.79h-3.38c-.52,0-.9-.49-.79-.99l.13-.59c.08-.37.41-.64.79-.64h4.25c.69,0,1.29-.47,1.44-1.15.2-.92-.5-1.79-1.44-1.79h-3.24c-.52,0-.9-.49-.79-.99l.09-.42c.08-.37.41-.64.79-.64Z"/>
      <path fill="currentColor" d="M10.48,9.95c1.35-.8,2.33-2.3,2.33-4.14,0-2.36-1.98-3.83-4.24-3.83H3.53c-.54,0-1.01.38-1.13.9L.03,13.67c-.16.72.39,1.4,1.13,1.4h1.01c.54,0,1.01-.38,1.13-.91l.57-2.58c.12-.53.58-.91,1.13-.91h.33c.39,0,.75.2.97.52l2.17,3.35c.21.33.58.52.97.52h.9c.93,0,1.48-1.04.95-1.81l-1.16-1.67c-.38-.55-.21-1.3.37-1.64ZM7.39,7.73h-1.25c-.74,0-1.29-.68-1.12-1.4l.11-.5c.12-.53.59-.9,1.12-.9h1.65c.75,0,1.39.51,1.39,1.24,0,.96-.77,1.57-1.9,1.57Z"/>
      <path fill="currentColor" d="M21.02,1.76c-4.44,0-7.73,3.38-7.73,7.6,0,3.59,2.89,5.95,6.63,5.95,4.44,0,7.73-3.39,7.73-7.63,0-3.55-2.89-5.91-6.63-5.91ZM20.12,12.32c-1.94,0-3.32-1.28-3.32-3.18,0-2.41,1.73-4.4,4.02-4.4,1.94,0,3.32,1.28,3.32,3.18,0,2.41-1.73,4.4-4.02,4.4Z"/>
      <path fill="currentColor" d="M57.63,1.98h-3.1c-.33,0-.64.17-.81.46l-2.73,4.56c-.45.76-1.6.53-1.74-.34l-.61-3.88c-.07-.46-.47-.8-.93-.8h-3.01c-.44,0-.82.31-.92.74l-2.47,11.21c-.13.59.32,1.15.92,1.15h1.45c.44,0,.83-.31.92-.74l.68-3.08c.22-1.02,1.69-.97,1.85.05l.47,2.9c.08.5.51.86,1.01.86h.04c.36,0,.69-.19.88-.5l1.96-3.26c.55-.91,1.96-.35,1.73.69l-.35,1.59c-.17.76.41,1.47,1.18,1.47h1.11c.44,0,.82-.31.92-.74l2.47-11.21c.13-.59-.32-1.15-.92-1.15Z"/>
      <path fill="currentColor" d="M69.19,9.88c1.34-.81,2.31-2.3,2.31-4.13,0-2.36-1.98-3.83-4.24-3.83h-5.03c-.55,0-1.03.38-1.15.92l-2.37,10.75c-.16.73.4,1.43,1.15,1.43h.97c.55,0,1.03-.38,1.15-.92l.56-2.55c.12-.54.59-.92,1.15-.92h.3c.4,0,.77.2.98.53l2.16,3.33c.22.33.59.53.98.53h.85c.95,0,1.5-1.06.96-1.84l-1.12-1.62c-.39-.56-.21-1.32.37-1.67ZM66.08,7.67h-1.23c-.75,0-1.31-.7-1.14-1.43l.1-.46c.12-.54.6-.92,1.14-.92h1.63c.75,0,1.39.51,1.39,1.24,0,.96-.77,1.57-1.9,1.57Z"/>
      <path fill="currentColor" d="M105.34,1.92h-4.42c-.57,0-1.06.4-1.19.95l-2.35,10.66c-.17.76.41,1.48,1.19,1.48h3.96c6.4,0,8.62-4.08,8.62-7.46s-2.91-5.63-5.81-5.63ZM103.16,12.07h-.57c-.78,0-1.35-.72-1.19-1.48l1.05-4.77c.12-.56.62-.95,1.19-.95h1.09c1.73,0,2.92,1.29,2.92,2.92,0,2.32-1.69,4.28-4.5,4.28Z"/>
      <path fill="currentColor" d="M38.25,3.35c-.12-.79-.8-1.37-1.6-1.37h-1.93c-.57,0-1.1.3-1.39.79l-5.88,9.85c-.65,1.08.13,2.45,1.39,2.45h.19c.59,0,1.14-.32,1.42-.84l2.43-4.42c.76-1.39,2.86-.97,3.03.6l.36,3.21c.09.82.79,1.44,1.61,1.44h.32c1,0,1.76-.89,1.6-1.87l-1.55-9.85Z"/>
      <path fill="currentColor" d="M94.65,3.19c-.11-.73-.74-1.26-1.48-1.26h-2.11c-.53,0-1.02.28-1.29.73l-6.03,10.1c-.6,1,.12,2.26,1.29,2.26h.48c.55,0,1.05-.3,1.31-.78l2.65-4.83c.7-1.28,2.64-.9,2.8.56l.41,3.72c.08.76.72,1.33,1.49,1.33h.58c.92,0,1.62-.82,1.48-1.73l-1.59-10.1Z"/>
      <path fill="currentColor" d="M126.87.99c-1.3,1.56-3.33,1.13-3.85.98-.04-.02-.08-.03-.13-.04,0,0,0,0,0,0h0s-.07-.02-.12-.02h-2.37c-.19,0-.36.08-.48.23l-3,3.75c-.3.37-.89.28-1.06-.17l-1.26-3.41c-.09-.24-.32-.4-.58-.4h-2.28c-.44,0-.74.45-.57.85l2.81,6.78c.05.12.06.24.03.37l-.95,4.35c-.08.38.21.75.6.75h2.12c.29,0,.54-.2.6-.48l1.02-4.65c.02-.1.07-.19.13-.27l1.11-1.3c.05-.03.12-.11.21-.24l2.52-2.95c2.73-1.86,6.71-2.58,7.27-3.61.75-1.37-.27-2.32-1.78-.52Z"/>
    </g>
  </g>
</svg>