<?xml version="1.0" encoding="UTF-8"?>
<svg id="_레이어_2" data-name="레이어 2" xmlns="http://www.w3.org/2000/svg" viewBox="0 0 128.66 52.29">
  <defs>
    <style>
      .cls-1 {
        fill: #3d9ef2;
      }
    </style>
  </defs>
  <g id="_레이어_1-2" data-name="레이어 1">
    <g>
      <path class="cls-1" d="M35.61,33.67h8.02c1.26.01,2.35-.86,2.63-2.09h0c.38-1.69-.9-3.3-2.63-3.3h-12.04c-1.27-.02-2.36.86-2.64,2.1l-4.12,18.59c-.37,1.68.91,3.28,2.63,3.28h12.06c1.27.02,2.36-.86,2.64-2.1.37-1.68-.91-3.28-2.63-3.28h-6.2c-.95,0-1.66-.89-1.45-1.82l.24-1.09c.15-.68.76-1.17,1.45-1.16h7.79c1.27.01,2.36-.87,2.64-2.11.37-1.68-.91-3.28-2.63-3.28h-5.94c-.95,0-1.66-.89-1.45-1.82l.17-.76c.15-.68.76-1.17,1.45-1.17Z"/>
      <path class="cls-1" d="M24.29,15c2.48-1.47,4.27-4.22,4.27-7.59,0-4.32-3.63-7.01-7.77-7.01h-9.24c-.99,0-1.85.69-2.06,1.66l-4.36,19.77c-.29,1.32.71,2.57,2.06,2.57h1.86c.99,0,1.85-.69,2.06-1.66l1.04-4.74c.21-.97,1.07-1.66,2.06-1.66h.61c.72,0,1.38.36,1.77.96l3.98,6.13c.39.6,1.06.96,1.77.96h1.66c1.7,0,2.71-1.91,1.74-3.31l-2.12-3.06c-.7-1.01-.38-2.39.67-3.01ZM18.63,10.94h-2.29c-1.35,0-2.36-1.25-2.06-2.57l.21-.92c.22-.96,1.07-1.65,2.06-1.65h3.02c1.37,0,2.55.93,2.55,2.26,0,1.76-1.4,2.88-3.49,2.88Z"/>
      <path class="cls-1" d="M43.61,0c-8.13,0-14.17,6.19-14.17,13.92,0,6.58,5.29,10.9,12.16,10.9,8.13,0,14.17-6.22,14.17-13.99,0-6.51-5.29-10.83-12.16-10.83ZM41.95,19.35c-3.56,0-6.08-2.34-6.08-5.83,0-4.43,3.16-8.06,7.37-8.06,3.56,0,6.08,2.34,6.08,5.83,0,4.42-3.16,8.06-7.37,8.06Z"/>
      <path class="cls-1" d="M110.69.4h-5.69c-.61,0-1.17.32-1.48.84l-5,8.35c-.83,1.38-2.94.98-3.19-.62l-1.12-7.11c-.13-.84-.86-1.46-1.71-1.46h-5.52c-.81,0-1.51.56-1.69,1.35l-4.53,20.54c-.24,1.08.58,2.1,1.69,2.1h2.65c.81,0,1.51-.56,1.69-1.36l1.24-5.65c.41-1.86,3.09-1.78,3.39.1l.86,5.32c.15.91.93,1.58,1.86,1.58h.06c.66,0,1.27-.35,1.61-.91l3.6-5.97c1.01-1.67,3.58-.65,3.16,1.26l-.64,2.92c-.3,1.38.75,2.7,2.17,2.7h2.04c.81,0,1.51-.56,1.69-1.35l4.53-20.54c.24-1.08-.58-2.1-1.69-2.1Z"/>
      <path class="cls-1" d="M19.24,42.88c2.46-1.48,4.23-4.21,4.23-7.57,0-4.32-3.63-7.01-7.77-7.01H6.49c-1.01,0-1.88.7-2.1,1.69L.05,49.68c-.3,1.34.73,2.61,2.1,2.61h1.78c1.01,0,1.88-.7,2.1-1.69l1.02-4.68c.22-.99,1.09-1.69,2.1-1.69h.55c.73,0,1.41.37,1.8.98l3.96,6.1c.4.61,1.08.98,1.8.98h1.56c1.73,0,2.75-1.95,1.77-3.37l-2.05-2.97c-.71-1.03-.39-2.42.69-3.07ZM13.54,38.84h-2.24c-1.38,0-2.4-1.28-2.1-2.62l.19-.84c.22-.98,1.09-1.68,2.1-1.68h2.99c1.37,0,2.55.93,2.55,2.26,0,1.76-1.4,2.88-3.49,2.88Z"/>
      <path class="cls-1" d="M85.47,28.3h-8.1c-1.05,0-1.95.73-2.17,1.75l-4.3,19.54c-.31,1.39.75,2.71,2.17,2.71h7.26c11.73,0,15.79-7.48,15.79-13.67s-5.32-10.32-10.65-10.32ZM81.48,46.89h-1.04c-1.42,0-2.48-1.32-2.17-2.71l1.93-8.75c.23-1.02,1.13-1.75,2.17-1.75h1.99c3.16,0,5.36,2.37,5.36,5.36,0,4.24-3.1,7.84-8.24,7.84Z"/>
      <path class="cls-1" d="M75.16,2.91c-.23-1.45-1.47-2.51-2.94-2.51h-3.54c-1.05,0-2.02.55-2.55,1.45l-10.77,18.05c-1.18,1.98.25,4.5,2.55,4.5h.34c1.08,0,2.08-.59,2.61-1.54l4.45-8.1c1.4-2.54,5.24-1.78,5.56,1.1l.65,5.89c.17,1.51,1.44,2.65,2.95,2.65h.59c1.83,0,3.22-1.63,2.94-3.43l-2.84-18.05Z"/>
      <path class="cls-1" d="M65.89,30.61c-.21-1.33-1.36-2.32-2.71-2.32h-3.87c-.97,0-1.86.51-2.36,1.34l-11.04,18.51c-1.09,1.83.23,4.15,2.36,4.15h.88c1,0,1.92-.55,2.4-1.42l4.86-8.85c1.29-2.35,4.84-1.64,5.13,1.02l.75,6.81c.15,1.39,1.33,2.44,2.73,2.44h1.06c1.69,0,2.97-1.51,2.71-3.17l-2.91-18.51Z"/>
      <path class="cls-1" d="M124.93,26.6c-2.39,2.86-6.1,2.06-7.05,1.8-.07-.03-.15-.05-.23-.07,0,0,0,0,0,0h0c-.07-.01-.14-.03-.21-.03h-4.35c-.34,0-.67.16-.88.42l-5.5,6.87c-.55.68-1.63.51-1.94-.31l-2.31-6.25c-.16-.44-.59-.74-1.06-.74h-4.18c-.8,0-1.35.82-1.04,1.56l5.15,12.43c.09.21.11.45.06.67l-1.74,7.96c-.15.7.38,1.37,1.1,1.37h3.88c.53,0,.99-.37,1.1-.89l1.87-8.52c.04-.18.12-.35.24-.49l2.03-2.38c.09-.06.22-.2.38-.45l4.62-5.41c5-3.4,12.29-4.72,13.33-6.62,1.38-2.52-.5-4.25-3.26-.94Z"/>
    </g>
  </g>
</svg>