<?xml version="1.0" encoding="UTF-8"?>
<svg id="_레이어_2" data-name="레이어 2" xmlns="http://www.w3.org/2000/svg" viewBox="0 0 127 111.92">
  <defs>
    <style>
      .cls-1 {
        fill: #3d9ef2;
      }
    </style>
  </defs>
  <g id="_레이어_1-2" data-name="레이어 1">
    <g>
      <path class="cls-1" d="M78.84,84.8c1.47,1.1,3.53,2.96,3.25,4.6-.11.63-.57,1.46-2.17,1.85-.38.09-.72.13-1.04.13-.99,0-1.7-.39-2.15-.76-.09-.08-.16-.18-.24-.27-.5,3.08-1.9,6.61-5.62,7.75-.09.02-.18.04-.26.04-.39,0-.75-.25-.87-.64-.14-.48.12-.99.6-1.13,3.56-1.08,4.4-5.35,4.56-8.22-1.38,2.59-4.62,5.92-12.21,6.18h-.03c-.49,0-.89-.39-.9-.87-.02-.5.37-.92.87-.94,3.4-.12,5.8-.89,7.49-1.89-.12.02-.23.09-.34.09-1.25.07-2.53-.74-3.47-2.34-.97-1.64-1.1-3.02-.38-4.08.59-.87,1.68-1.34,2.89-1.59-19.79-8.16-24.84-36.89-26.12-51.41-.03-.29-.41-.39-.58-.15-2.08,2.9-3.85,6.27-5.27,10.1-2.33,6.3-6.36,11.83-10.68,16.22l-.03.15s-10.71,12.63-21.98,15.15c-1.42.32-2.81.58-4.15.79.08.14.15.28.23.42,1.79,4.91,10.53,12.3,17.71,11.04,2.18.17,7.76,1.07,8.33,5.76.03.28.09.52.15.77.24,4.32,4.02,9.32,11.84,7.15,1.2.05,8.78.55,10.79,5.4.13.3.31.53.48.77.14.46.3.93.42,1.39.62,2.46.63,4.28.45,5.59.37.01.68.03,1.1.04,7.2.2,14.27-5.3,14.27-5.3l.03.04c7.97-5.68,17.53-14.62,24.6-25.76-1.34.87-2.71,1.63-4.11,2.22-2.75,1.16-5.27,1.6-7.45,1.7Z"/>
      <path class="cls-1" d="M67.84,87.47c.58.99,1.16,1.45,1.85,1.45,1.49-.05,3.36-2.43,4.54-4.42,0,0,0,0,0,0-.02,0-.05,0-.07,0-.82-.12-1.78-.2-2.72-.2-1.8,0-3.53.27-4.04,1.02-.37.55.03,1.47.44,2.15Z"/>
      <path class="cls-1" d="M77.88,89.23c.26.22.71.49,1.61.26.64-.16.81-.35.82-.39.1-.58-1.62-2.3-3.54-3.54-.03-.02-.06-.05-.08-.08.02.25.05.68.06,1.23.19,1.02.53,2.01,1.14,2.52Z"/>
      <path class="cls-1" d="M108.52,29.1c-.56,1.03-1.12,2.02-1.61,2.84-.98,1.64-2.7,2.63-4.53,2.63-.08,0-.17,0-.26,0-.72-.04-1.44-.12-2.16-.19-1.92-.19-3.83-.48-5.73-.88-12.3-2.58-23.86-9.14-31.3-14.13-1.33-.89-2.51-1.72-3.55-2.47-.65-.47-1.26-.91-1.78-1.31-1.73-1.3-2.31-3.66-1.37-5.61l1.13-2.35c-14.87-4.14-25.68-4.94-27.17-1.34-1.45,3.51,6.3,10.32,19.13,17.67,7.06,4.05,15.64,8.26,25.12,12.19,8.73,3.62,17.1,6.52,24.51,8.62,4.23,1.2,8.14,2.13,11.62,2.78.13.02.26.04.39.07,8.83,1.59,14.8,1.3,15.88-1.3,1.42-3.43-5.96-10.03-18.31-17.21Z"/>
      <path class="cls-1" d="M58.68,14.14c1.81,1.36,4.38,3.2,7.49,5.18,6.84,4.37,16.34,9.47,26.46,11.96,3.16.78,6.37,1.31,9.59,1.47.31.01.62-.02.92-.09.91-.21,1.71-.8,2.22-1.66.27-.45.56-.96.86-1.49.16-.29.32-.58.49-.88.08-.14.16-.29.24-.44,0,0,0,0-.01,0,.05-.11.12-.22.17-.33.17-.41.29-.82.4-1.24,2.21-8.11-5.56-18.44-18.13-23.64-12.34-5.11-24.91-3.47-29.31,3.5-.05-.01-.36.53-.4.52l-.54,1.12-1.27,2.64c-.55,1.15-.22,2.53.77,3.33.02.02.03.04.05.06Z"/>
      <path class="cls-1" d="M42.54,29.57c.15.14.35.21.56.22.02,0,.03.02.04.02.02,0,.04,0,.06,0,.5-.04.87-.47.84-.96,0-.04,0-.09,0-.13-.13-1.93-.21-4.59-.25-5.84-.01-.41-.02-.66-.02-.68,0,0,0-.01,0-.01-.01-.5-.39-.86-.92-.88-.35,0-.6.25-.74.55-.06.12-.15.23-.15.37,0,.04.09,4.13.27,6.75.02.24.13.45.3.6Z"/>
      <path class="cls-1" d="M111.92,49.3c-.15-.15-.33-.27-.55-.28-.11,0-.21.07-.31.11-.33.11-.63.34-.66.72-.24,2.81-.8,5.35-1.56,7.65-1.37,3.1-2.79,5.99-4.3,8.57-3.29,4.7-6.73,7.07-6.79,7.11-.42.28-.53.84-.25,1.25.17.26.46.4.75.4,0,0,.02,0,.03,0,.16,0,.33-.05.47-.14.49-.33,12.07-8.22,13.45-24.68.02-.2-.07-.36-.17-.52-.04-.06-.06-.12-.11-.17Z"/>
      <path class="cls-1" d="M104.4,60.69c1.89-3.68,3.34-7.18,4.96-11.72-3.15-.66-6.53-1.5-10.14-2.52-8.01-2.27-17-5.4-26.34-9.27-9.1-3.77-17.46-7.8-24.61-11.75-.33-.18-.73-.15-1.02.1-.79.67-1.54,1.38-2.26,2.15-.43.46-.65,1.06-.6,1.69,1.12,13.93,6.01,45.87,27.43,52.54.17.08,6.12,2.77,13.82-.48,2.45-1.04,4.81-2.6,7.09-4.59.13-.12.24-.26.33-.42-.04.07-.07.15-.11.22,3.28-2.94,6.13-6.46,8.96-11.31,2.12-.8,3.52-2.99,2.5-4.63ZM67.78,65.59l12.46,3.08,5.06,1.25h.05c-10.48,10.86-17.58-4.33-17.58-4.33ZM97.87,64.87c-1.4.43-3.05.76-4.97.9-5.3.4-9.97-3.07-9-7.29-.37-.68-1.6-2.19-5.27-2.25-.68,1.45-2.14,2.1-3.97,2.06-2.74-.06-6.31-1.67-9.31-4.44-6.02-5.58-8.48-10.47-6.78-11.36,1.7-.89,4.08-.15,4.08-.15,0,0,13.66,3.11,16.02,9.54.14.39.26.79.31,1.2.02.17.01.31.03.47,3.22.13,5.15,1.19,6.24,2.28,3.5-4.23,11.74.49,14.09,1.98.4.26.65.43.65.43,0,0,1.77,1,2.37,2.87.41,1.3-1.32,2.8-4.49,3.76Z"/>
    </g>
  </g>
</svg>